<svg xmlns="http://www.w3.org/2000/svg" xmlns:xlink="http://www.w3.org/1999/xlink" width="368" zoomAndPan="magnify" viewBox="0 0 276 48.75" height="65" preserveAspectRatio="xMidYMid meet" version="1.2"><defs><clipPath id="ddbaec696d"><path d="M 0.703125 0 L 275.296875 0 L 275.296875 48.5 L 0.703125 48.5 Z M 0.703125 0 "/></clipPath><clipPath id="579d3f33b0"><path d="M 9.0625 0 L 266.9375 0 C 271.554688 0 275.296875 3.742188 275.296875 8.355469 L 275.296875 40.144531 C 275.296875 44.757812 271.554688 48.5 266.9375 48.5 L 9.0625 48.5 C 4.445312 48.5 0.703125 44.757812 0.703125 40.144531 L 0.703125 8.355469 C 0.703125 3.742188 4.445312 0 9.0625 0 Z M 9.0625 0 "/></clipPath><clipPath id="ad4a29c4ee"><path d="M 13.226562 18 L 17 18 L 17 30 L 13.226562 30 Z M 13.226562 18 "/></clipPath><clipPath id="ddb33c99cc"><path d="M 18 12.507812 L 28.894531 12.507812 L 28.894531 36.386719 L 18 36.386719 Z M 18 12.507812 "/></clipPath><clipPath id="e399d0f316"><path d="M 21.066406 5.59375 L 36.734375 5.59375 L 36.734375 42.15625 L 21.066406 42.15625 Z M 21.066406 5.59375 "/></clipPath><clipPath id="14b8dcf93c"><path d="M 29.726562 3.152344 L 30 3.152344 L 30 44.9375 L 29.726562 44.9375 Z M 29.726562 3.152344 "/></clipPath></defs><g id="eff8ead778"><g clip-rule="nonzero" clip-path="url(#ddbaec696d)"><g clip-rule="nonzero" clip-path="url(#579d3f33b0)"><path style=" stroke:none;fill-rule:nonzero;fill:#00a1e0;fill-opacity:1;" d="M 0.703125 0 L 275.230469 0 L 275.230469 48.5 L 0.703125 48.5 Z M 0.703125 0 "/></g></g><g clip-rule="nonzero" clip-path="url(#ad4a29c4ee)"><path style=" stroke:none;fill-rule:nonzero;fill:#431b61;fill-opacity:1;" d="M 16.238281 18.875 L 14.335938 18.875 C 13.785156 18.875 13.332031 19.328125 13.332031 19.878906 L 13.332031 28.851562 C 13.332031 29.402344 13.785156 29.851562 14.335938 29.851562 L 16.238281 29.851562 Z M 16.238281 18.875 "/></g><g clip-rule="nonzero" clip-path="url(#ddb33c99cc)"><path style=" stroke:none;fill-rule:nonzero;fill:#431b61;fill-opacity:1;" d="M 27.570312 12.660156 C 27.21875 12.507812 26.867188 12.507812 26.566406 12.761719 L 18.195312 18.875 L 18.195312 29.804688 L 26.566406 35.917969 C 26.714844 36.070312 26.917969 36.117188 27.167969 36.117188 C 27.316406 36.117188 27.46875 36.070312 27.617188 36.019531 C 27.96875 35.867188 28.171875 35.515625 28.171875 35.167969 L 28.171875 13.5625 C 28.121094 13.160156 27.871094 12.808594 27.570312 12.660156 Z M 27.570312 12.660156 "/></g><g clip-rule="nonzero" clip-path="url(#e399d0f316)"><path style=" stroke:none;fill-rule:nonzero;fill:#fcb40e;fill-opacity:1;" d="M 30.53125 20.722656 L 35.238281 8.753906 L 36.472656 5.621094 L 34.449219 8.3125 L 21.621094 25.367188 L 21.066406 26.105469 L 21.988281 26.101562 L 27.574219 26.078125 L 22.679688 38.78125 L 21.382812 42.136719 L 23.476562 39.210938 L 36.179688 21.457031 L 36.695312 20.734375 L 35.808594 20.734375 L 30.53125 20.722656 "/></g><path style=" stroke:none;fill-rule:nonzero;fill:#431b61;fill-opacity:1;" d="M 40.277344 12.40625 C 39.660156 11.699219 38.515625 11.699219 37.808594 12.316406 C 37.105469 12.933594 37.105469 14.078125 37.722656 14.785156 C 42.480469 19.804688 42.480469 28 37.722656 33.113281 C 37.105469 33.816406 37.105469 34.875 37.808594 35.578125 C 38.160156 35.929688 38.601562 36.019531 38.953125 36.019531 C 39.394531 36.019531 39.835938 35.84375 40.1875 35.492188 C 46.269531 29.148438 46.269531 18.75 40.277344 12.40625 Z M 40.277344 12.40625 "/><path style=" stroke:none;fill-rule:nonzero;fill:#431b61;fill-opacity:1;" d="M 35.164062 17.867188 C 34.546875 17.164062 33.402344 17.164062 32.699219 17.78125 C 31.992188 18.398438 31.992188 19.542969 32.609375 20.246094 C 34.546875 22.273438 34.546875 25.621094 32.609375 27.648438 C 31.992188 28.351562 31.992188 29.410156 32.699219 30.117188 C 33.050781 30.46875 33.492188 30.554688 33.84375 30.554688 C 34.285156 30.554688 34.726562 30.378906 35.078125 30.027344 C 38.335938 26.679688 38.335938 21.214844 35.164062 17.867188 Z M 35.164062 17.867188 "/><g clip-rule="nonzero" clip-path="url(#14b8dcf93c)"><path style=" stroke:none;fill-rule:nonzero;fill:#431b61;fill-opacity:1;" d="M 28.378906 3.417969 C 27.765625 3.152344 27.148438 3.152344 26.617188 3.59375 L 11.902344 14.34375 L 11.902344 33.550781 L 26.617188 44.300781 C 26.882812 44.566406 27.234375 44.65625 27.675781 44.65625 C 27.941406 44.65625 28.203125 44.566406 28.46875 44.476562"/></g><g style="fill:#431b61;fill-opacity:1;"><g transform="translate(52.711, 33.693941)"><path style="stroke:none" d="M 0.390625 -2.640625 L 3.09375 -17.9375 C 3.257812 -18.863281 3.660156 -19.5625 4.296875 -20.03125 C 4.941406 -20.507812 5.65625 -20.75 6.4375 -20.75 C 7.082031 -20.75 7.632812 -20.5625 8.09375 -20.1875 C 8.5625 -19.820312 8.796875 -19.273438 8.796875 -18.546875 C 8.796875 -18.460938 8.789062 -18.367188 8.78125 -18.265625 C 8.78125 -18.160156 8.769531 -18.050781 8.75 -17.9375 L 6.046875 -2.640625 C 5.878906 -1.734375 5.476562 -1.035156 4.84375 -0.546875 C 4.21875 -0.0664062 3.523438 0.171875 2.765625 0.171875 C 2.078125 0.171875 1.5 -0.015625 1.03125 -0.390625 C 0.5625 -0.773438 0.328125 -1.332031 0.328125 -2.0625 C 0.328125 -2.15625 0.332031 -2.25 0.34375 -2.34375 C 0.351562 -2.445312 0.367188 -2.546875 0.390625 -2.640625 Z M 0.390625 -2.640625 "/></g></g><g style="fill:#431b61;fill-opacity:1;"><g transform="translate(61.039153, 33.693941)"><path style="stroke:none" d="M 10.59375 -1.34375 L 7.125 -8.71875 L 6.046875 -2.640625 C 5.878906 -1.734375 5.472656 -1.035156 4.828125 -0.546875 C 4.191406 -0.0664062 3.492188 0.171875 2.734375 0.171875 C 2.046875 0.171875 1.472656 -0.015625 1.015625 -0.390625 C 0.554688 -0.773438 0.328125 -1.332031 0.328125 -2.0625 C 0.328125 -2.101562 0.332031 -2.164062 0.34375 -2.25 C 0.351562 -2.332031 0.382812 -2.523438 0.4375 -2.828125 C 0.5 -3.128906 0.582031 -3.601562 0.6875 -4.25 C 0.800781 -4.90625 0.957031 -5.804688 1.15625 -6.953125 C 1.363281 -8.109375 1.625 -9.582031 1.9375 -11.375 C 2.257812 -13.164062 2.644531 -15.351562 3.09375 -17.9375 C 3.257812 -18.863281 3.660156 -19.5625 4.296875 -20.03125 C 4.941406 -20.507812 5.644531 -20.75 6.40625 -20.75 C 7.039062 -20.75 7.507812 -20.625 7.8125 -20.375 C 8.125 -20.125 8.378906 -19.769531 8.578125 -19.3125 L 12.234375 -11.484375 L 13.375 -17.9375 C 13.539062 -18.863281 13.953125 -19.5625 14.609375 -20.03125 C 15.265625 -20.507812 15.96875 -20.75 16.71875 -20.75 C 17.40625 -20.75 17.972656 -20.5625 18.421875 -20.1875 C 18.878906 -19.820312 19.109375 -19.273438 19.109375 -18.546875 C 19.109375 -18.515625 19.101562 -18.457031 19.09375 -18.375 C 19.082031 -18.289062 19.050781 -18.09375 19 -17.78125 C 18.945312 -17.476562 18.863281 -16.992188 18.75 -16.328125 C 18.632812 -15.671875 18.472656 -14.765625 18.265625 -13.609375 C 18.066406 -12.460938 17.8125 -10.992188 17.5 -9.203125 C 17.195312 -7.410156 16.816406 -5.222656 16.359375 -2.640625 C 16.191406 -1.734375 15.789062 -1.035156 15.15625 -0.546875 C 14.519531 -0.0664062 13.8125 0.171875 13.03125 0.171875 C 12.269531 0.171875 11.722656 0.0234375 11.390625 -0.265625 C 11.054688 -0.566406 10.789062 -0.925781 10.59375 -1.34375 Z M 10.59375 -1.34375 "/></g></g><g style="fill:#431b61;fill-opacity:1;"><g transform="translate(79.67304, 33.693941)"><path style="stroke:none" d="M 9.890625 0 L 2.53125 0 C 0.988281 0 0.21875 -0.707031 0.21875 -2.125 C 0.21875 -3.226562 0.488281 -4.101562 1.03125 -4.75 C 1.582031 -5.394531 2.425781 -5.71875 3.5625 -5.71875 L 11.203125 -5.71875 C 12.085938 -5.71875 12.53125 -6.054688 12.53125 -6.734375 C 12.53125 -7.203125 12.1875 -7.4375 11.5 -7.4375 L 6.859375 -7.4375 C 5.160156 -7.4375 3.890625 -7.867188 3.046875 -8.734375 C 2.203125 -9.597656 1.78125 -10.835938 1.78125 -12.453125 C 1.78125 -15.015625 2.425781 -17.007812 3.71875 -18.4375 C 5.007812 -19.875 6.972656 -20.59375 9.609375 -20.59375 L 15.875 -20.59375 C 17.414062 -20.59375 18.1875 -19.882812 18.1875 -18.46875 C 18.1875 -17.375 17.90625 -16.5 17.34375 -15.84375 C 16.789062 -15.195312 15.953125 -14.875 14.828125 -14.875 L 8.1875 -14.875 C 7.3125 -14.875 6.875 -14.53125 6.875 -13.84375 C 6.875 -13.382812 7.210938 -13.15625 7.890625 -13.15625 L 12.5625 -13.15625 C 14.269531 -13.15625 15.539062 -12.71875 16.375 -11.84375 C 17.21875 -10.96875 17.640625 -9.722656 17.640625 -8.109375 C 17.640625 -5.578125 17.003906 -3.59375 15.734375 -2.15625 C 14.472656 -0.71875 12.523438 0 9.890625 0 Z M 9.890625 0 "/></g></g><g style="fill:#431b61;fill-opacity:1;"><g transform="translate(97.359864, 33.693941)"><path style="stroke:none" d="M 5.59375 -1.75 L 2.09375 -16.90625 C 2.070312 -17 2.050781 -17.113281 2.03125 -17.25 C 2.007812 -17.394531 2 -17.515625 2 -17.609375 C 2 -18.234375 2.179688 -18.78125 2.546875 -19.25 C 2.910156 -19.71875 3.359375 -20.082031 3.890625 -20.34375 C 4.429688 -20.613281 4.960938 -20.75 5.484375 -20.75 C 6.066406 -20.75 6.554688 -20.59375 6.953125 -20.28125 C 7.347656 -19.96875 7.613281 -19.515625 7.75 -18.921875 L 9.6875 -9.5 L 14.953125 -18.921875 C 15.328125 -19.566406 15.757812 -20.03125 16.25 -20.3125 C 16.75 -20.601562 17.273438 -20.75 17.828125 -20.75 C 18.515625 -20.75 19.113281 -20.53125 19.625 -20.09375 C 20.132812 -19.664062 20.390625 -19.097656 20.390625 -18.390625 C 20.390625 -17.867188 20.25 -17.375 19.96875 -16.90625 L 11.109375 -1.75 C 10.367188 -0.46875 9.367188 0.171875 8.109375 0.171875 C 7.609375 0.171875 7.101562 0.0351562 6.59375 -0.234375 C 6.09375 -0.503906 5.757812 -1.007812 5.59375 -1.75 Z M 5.59375 -1.75 "/></g></g><g style="fill:#431b61;fill-opacity:1;"><g transform="translate(116.216581, 33.693941)"><path style="stroke:none" d=""/></g></g><g style="fill:#431b61;fill-opacity:1;"><g transform="translate(124.906822, 33.693941)"><path style="stroke:none" d="M 8.03125 -0.859375 L 2.5 -7.1875 C 2.207031 -7.539062 1.953125 -7.929688 1.734375 -8.359375 C 1.523438 -8.785156 1.421875 -9.257812 1.421875 -9.78125 C 1.421875 -10.757812 1.734375 -11.566406 2.359375 -12.203125 C 2.992188 -12.835938 3.9375 -13.15625 5.1875 -13.15625 L 12.34375 -13.15625 C 13.21875 -13.15625 13.65625 -13.5 13.65625 -14.1875 C 13.65625 -14.644531 13.316406 -14.875 12.640625 -14.875 L 4.984375 -14.875 C 4.242188 -14.875 3.671875 -15.0625 3.265625 -15.4375 C 2.867188 -15.820312 2.671875 -16.390625 2.671875 -17.140625 C 2.671875 -18.191406 2.929688 -19.03125 3.453125 -19.65625 C 3.972656 -20.28125 4.8125 -20.59375 5.96875 -20.59375 L 13.34375 -20.59375 C 16.945312 -20.59375 18.75 -18.898438 18.75 -15.515625 C 18.75 -13.878906 18.535156 -12.554688 18.109375 -11.546875 C 17.679688 -10.535156 17.113281 -9.757812 16.40625 -9.21875 C 15.695312 -8.675781 14.910156 -8.3125 14.046875 -8.125 C 13.191406 -7.945312 12.328125 -7.859375 11.453125 -7.859375 L 10.328125 -7.859375 L 12.78125 -5.09375 C 13.039062 -4.800781 13.234375 -4.503906 13.359375 -4.203125 C 13.492188 -3.910156 13.5625 -3.585938 13.5625 -3.234375 C 13.5625 -2.617188 13.414062 -2.054688 13.125 -1.546875 C 12.84375 -1.035156 12.457031 -0.617188 11.96875 -0.296875 C 11.476562 0.015625 10.914062 0.171875 10.28125 0.171875 C 9.457031 0.171875 8.707031 -0.171875 8.03125 -0.859375 Z M 8.03125 -0.859375 "/></g></g><g style="fill:#431b61;fill-opacity:1;"><g transform="translate(142.900081, 33.693941)"><path style="stroke:none" d="M 14.125 0 L 2.765625 0 C 1.160156 0 0.359375 -0.675781 0.359375 -2.03125 C 0.359375 -2.289062 0.390625 -2.5625 0.453125 -2.84375 L 3.0625 -17.75 C 3.394531 -19.644531 4.5 -20.59375 6.375 -20.59375 L 17.6875 -20.59375 C 18.46875 -20.59375 19.0625 -20.359375 19.46875 -19.890625 C 19.882812 -19.421875 20.09375 -18.863281 20.09375 -18.21875 C 20.09375 -17.644531 19.945312 -17.101562 19.65625 -16.59375 C 19.363281 -16.082031 18.960938 -15.664062 18.453125 -15.34375 C 17.941406 -15.03125 17.351562 -14.875 16.6875 -14.875 L 8.1875 -14.875 L 7.859375 -12.953125 L 16.515625 -12.953125 C 17.171875 -12.953125 17.679688 -12.773438 18.046875 -12.421875 C 18.421875 -12.066406 18.609375 -11.546875 18.609375 -10.859375 C 18.609375 -9.878906 18.320312 -9.09375 17.75 -8.5 C 17.1875 -7.90625 16.460938 -7.609375 15.578125 -7.609375 L 6.90625 -7.609375 L 6.578125 -5.71875 L 15.125 -5.71875 C 15.90625 -5.71875 16.503906 -5.476562 16.921875 -5 C 17.335938 -4.53125 17.546875 -3.96875 17.546875 -3.3125 C 17.546875 -2.738281 17.398438 -2.195312 17.109375 -1.6875 C 16.828125 -1.175781 16.425781 -0.765625 15.90625 -0.453125 C 15.382812 -0.148438 14.789062 0 14.125 0 Z M 14.125 0 "/></g></g><g style="fill:#431b61;fill-opacity:1;"><g transform="translate(162.230306, 33.693941)"><path style="stroke:none" d="M 14.828125 -7.4375 L 6.875 -7.4375 L 6.015625 -2.640625 C 5.847656 -1.734375 5.445312 -1.035156 4.8125 -0.546875 C 4.1875 -0.0664062 3.492188 0.171875 2.734375 0.171875 C 2.046875 0.171875 1.472656 -0.015625 1.015625 -0.390625 C 0.554688 -0.773438 0.328125 -1.332031 0.328125 -2.0625 C 0.328125 -2.15625 0.332031 -2.25 0.34375 -2.34375 C 0.351562 -2.445312 0.367188 -2.546875 0.390625 -2.640625 L 3.0625 -17.75 C 3.394531 -19.644531 4.5 -20.59375 6.375 -20.59375 L 17.140625 -20.59375 C 17.910156 -20.59375 18.503906 -20.359375 18.921875 -19.890625 C 19.347656 -19.421875 19.5625 -18.851562 19.5625 -18.1875 C 19.5625 -17.632812 19.414062 -17.101562 19.125 -16.59375 C 18.832031 -16.082031 18.425781 -15.664062 17.90625 -15.34375 C 17.394531 -15.03125 16.800781 -14.875 16.125 -14.875 L 8.1875 -14.875 L 7.890625 -13.15625 L 15.828125 -13.15625 C 16.609375 -13.15625 17.207031 -12.921875 17.625 -12.453125 C 18.039062 -11.984375 18.25 -11.414062 18.25 -10.75 C 18.25 -10.175781 18.101562 -9.640625 17.8125 -9.140625 C 17.53125 -8.640625 17.128906 -8.226562 16.609375 -7.90625 C 16.085938 -7.59375 15.492188 -7.4375 14.828125 -7.4375 Z M 14.828125 -7.4375 "/></g></g><g style="fill:#431b61;fill-opacity:1;"><g transform="translate(180.669225, 33.693941)"><path style="stroke:none" d="M 8.03125 -0.859375 L 2.5 -7.1875 C 2.207031 -7.539062 1.953125 -7.929688 1.734375 -8.359375 C 1.523438 -8.785156 1.421875 -9.257812 1.421875 -9.78125 C 1.421875 -10.757812 1.734375 -11.566406 2.359375 -12.203125 C 2.992188 -12.835938 3.9375 -13.15625 5.1875 -13.15625 L 12.34375 -13.15625 C 13.21875 -13.15625 13.65625 -13.5 13.65625 -14.1875 C 13.65625 -14.644531 13.316406 -14.875 12.640625 -14.875 L 4.984375 -14.875 C 4.242188 -14.875 3.671875 -15.0625 3.265625 -15.4375 C 2.867188 -15.820312 2.671875 -16.390625 2.671875 -17.140625 C 2.671875 -18.191406 2.929688 -19.03125 3.453125 -19.65625 C 3.972656 -20.28125 4.8125 -20.59375 5.96875 -20.59375 L 13.34375 -20.59375 C 16.945312 -20.59375 18.75 -18.898438 18.75 -15.515625 C 18.75 -13.878906 18.535156 -12.554688 18.109375 -11.546875 C 17.679688 -10.535156 17.113281 -9.757812 16.40625 -9.21875 C 15.695312 -8.675781 14.910156 -8.3125 14.046875 -8.125 C 13.191406 -7.945312 12.328125 -7.859375 11.453125 -7.859375 L 10.328125 -7.859375 L 12.78125 -5.09375 C 13.039062 -4.800781 13.234375 -4.503906 13.359375 -4.203125 C 13.492188 -3.910156 13.5625 -3.585938 13.5625 -3.234375 C 13.5625 -2.617188 13.414062 -2.054688 13.125 -1.546875 C 12.84375 -1.035156 12.457031 -0.617188 11.96875 -0.296875 C 11.476562 0.015625 10.914062 0.171875 10.28125 0.171875 C 9.457031 0.171875 8.707031 -0.171875 8.03125 -0.859375 Z M 8.03125 -0.859375 "/></g></g><g style="fill:#431b61;fill-opacity:1;"><g transform="translate(198.662484, 33.693941)"><path style="stroke:none" d="M 14.125 0 L 2.765625 0 C 1.160156 0 0.359375 -0.675781 0.359375 -2.03125 C 0.359375 -2.289062 0.390625 -2.5625 0.453125 -2.84375 L 3.0625 -17.75 C 3.394531 -19.644531 4.5 -20.59375 6.375 -20.59375 L 17.6875 -20.59375 C 18.46875 -20.59375 19.0625 -20.359375 19.46875 -19.890625 C 19.882812 -19.421875 20.09375 -18.863281 20.09375 -18.21875 C 20.09375 -17.644531 19.945312 -17.101562 19.65625 -16.59375 C 19.363281 -16.082031 18.960938 -15.664062 18.453125 -15.34375 C 17.941406 -15.03125 17.351562 -14.875 16.6875 -14.875 L 8.1875 -14.875 L 7.859375 -12.953125 L 16.515625 -12.953125 C 17.171875 -12.953125 17.679688 -12.773438 18.046875 -12.421875 C 18.421875 -12.066406 18.609375 -11.546875 18.609375 -10.859375 C 18.609375 -9.878906 18.320312 -9.09375 17.75 -8.5 C 17.1875 -7.90625 16.460938 -7.609375 15.578125 -7.609375 L 6.90625 -7.609375 L 6.578125 -5.71875 L 15.125 -5.71875 C 15.90625 -5.71875 16.503906 -5.476562 16.921875 -5 C 17.335938 -4.53125 17.546875 -3.96875 17.546875 -3.3125 C 17.546875 -2.738281 17.398438 -2.195312 17.109375 -1.6875 C 16.828125 -1.175781 16.425781 -0.765625 15.90625 -0.453125 C 15.382812 -0.148438 14.789062 0 14.125 0 Z M 14.125 0 "/></g></g><g style="fill:#431b61;fill-opacity:1;"><g transform="translate(217.99271, 33.693941)"><path style="stroke:none" d="M 9.890625 0 L 2.53125 0 C 0.988281 0 0.21875 -0.707031 0.21875 -2.125 C 0.21875 -3.226562 0.488281 -4.101562 1.03125 -4.75 C 1.582031 -5.394531 2.425781 -5.71875 3.5625 -5.71875 L 11.203125 -5.71875 C 12.085938 -5.71875 12.53125 -6.054688 12.53125 -6.734375 C 12.53125 -7.203125 12.1875 -7.4375 11.5 -7.4375 L 6.859375 -7.4375 C 5.160156 -7.4375 3.890625 -7.867188 3.046875 -8.734375 C 2.203125 -9.597656 1.78125 -10.835938 1.78125 -12.453125 C 1.78125 -15.015625 2.425781 -17.007812 3.71875 -18.4375 C 5.007812 -19.875 6.972656 -20.59375 9.609375 -20.59375 L 15.875 -20.59375 C 17.414062 -20.59375 18.1875 -19.882812 18.1875 -18.46875 C 18.1875 -17.375 17.90625 -16.5 17.34375 -15.84375 C 16.789062 -15.195312 15.953125 -14.875 14.828125 -14.875 L 8.1875 -14.875 C 7.3125 -14.875 6.875 -14.53125 6.875 -13.84375 C 6.875 -13.382812 7.210938 -13.15625 7.890625 -13.15625 L 12.5625 -13.15625 C 14.269531 -13.15625 15.539062 -12.71875 16.375 -11.84375 C 17.21875 -10.96875 17.640625 -9.722656 17.640625 -8.109375 C 17.640625 -5.578125 17.003906 -3.59375 15.734375 -2.15625 C 14.472656 -0.71875 12.523438 0 9.890625 0 Z M 9.890625 0 "/></g></g><g style="fill:#431b61;fill-opacity:1;"><g transform="translate(236.570887, 33.693941)"><path style="stroke:none" d="M 11.53125 -7.4375 L 6.90625 -7.4375 L 6.078125 -2.640625 C 5.921875 -1.734375 5.515625 -1.035156 4.859375 -0.546875 C 4.203125 -0.0664062 3.492188 0.171875 2.734375 0.171875 C 2.046875 0.171875 1.472656 -0.015625 1.015625 -0.390625 C 0.554688 -0.773438 0.328125 -1.332031 0.328125 -2.0625 C 0.328125 -2.15625 0.332031 -2.25 0.34375 -2.34375 C 0.351562 -2.445312 0.367188 -2.546875 0.390625 -2.640625 L 3.09375 -17.9375 C 3.257812 -18.863281 3.660156 -19.5625 4.296875 -20.03125 C 4.941406 -20.507812 5.644531 -20.75 6.40625 -20.75 C 7.070312 -20.75 7.640625 -20.5625 8.109375 -20.1875 C 8.585938 -19.820312 8.828125 -19.273438 8.828125 -18.546875 C 8.828125 -18.492188 8.820312 -18.414062 8.8125 -18.3125 C 8.800781 -18.21875 8.769531 -18 8.71875 -17.65625 C 8.664062 -17.320312 8.578125 -16.800781 8.453125 -16.09375 C 8.335938 -15.394531 8.164062 -14.414062 7.9375 -13.15625 L 12.5625 -13.15625 L 13.40625 -17.9375 C 13.550781 -18.863281 13.953125 -19.5625 14.609375 -20.03125 C 15.265625 -20.507812 15.96875 -20.75 16.71875 -20.75 C 17.40625 -20.75 17.972656 -20.5625 18.421875 -20.1875 C 18.878906 -19.820312 19.109375 -19.273438 19.109375 -18.546875 C 19.109375 -18.460938 19.101562 -18.367188 19.09375 -18.265625 C 19.082031 -18.160156 19.070312 -18.050781 19.0625 -17.9375 L 16.359375 -2.640625 C 16.191406 -1.734375 15.789062 -1.035156 15.15625 -0.546875 C 14.519531 -0.0664062 13.8125 0.171875 13.03125 0.171875 C 12.363281 0.171875 11.796875 -0.015625 11.328125 -0.390625 C 10.867188 -0.773438 10.640625 -1.332031 10.640625 -2.0625 C 10.640625 -2.113281 10.644531 -2.191406 10.65625 -2.296875 C 10.664062 -2.398438 10.695312 -2.617188 10.75 -2.953125 C 10.8125 -3.285156 10.898438 -3.804688 11.015625 -4.515625 C 11.140625 -5.222656 11.3125 -6.195312 11.53125 -7.4375 Z M 11.53125 -7.4375 "/></g></g><g style="fill:#ffffff;fill-opacity:1;"><g transform="translate(141.442209, 42.50486)"><path style="stroke:none" d="M 2.0625 0 L -0.1875 -5.34375 L 1.1875 -5.34375 L 2.53125 -1.828125 L 3.875 -5.34375 L 5.25 -5.34375 L 3.015625 0 Z M 2.0625 0 "/></g></g><g style="fill:#ffffff;fill-opacity:1;"><g transform="translate(146.512246, 42.50486)"><path style="stroke:none" d="M 0.5 -5.171875 C 0.632812 -5.304688 0.789062 -5.375 0.96875 -5.375 C 1.15625 -5.375 1.316406 -5.304688 1.453125 -5.171875 C 1.585938 -5.035156 1.65625 -4.875 1.65625 -4.6875 C 1.65625 -4.5 1.585938 -4.335938 1.453125 -4.203125 C 1.316406 -4.078125 1.15625 -4.015625 0.96875 -4.015625 C 0.789062 -4.015625 0.632812 -4.078125 0.5 -4.203125 C 0.363281 -4.335938 0.296875 -4.5 0.296875 -4.6875 C 0.296875 -4.875 0.363281 -5.035156 0.5 -5.171875 Z M 0.390625 -3.3125 L 0.390625 0 L 1.53125 0 L 1.53125 -3.3125 Z M 0.390625 -3.3125 "/></g></g><g style="fill:#ffffff;fill-opacity:1;"><g transform="translate(148.465244, 42.50486)"><path style="stroke:none" d="M 0.578125 -3.3125 L 0.578125 -4.546875 L 1.734375 -4.546875 L 1.734375 -3.3125 L 2.421875 -3.3125 L 2.421875 -2.4375 L 1.734375 -2.4375 L 1.734375 -1.390625 C 1.734375 -1.085938 1.816406 -0.9375 1.984375 -0.9375 C 2.023438 -0.9375 2.066406 -0.941406 2.109375 -0.953125 C 2.160156 -0.972656 2.203125 -0.992188 2.234375 -1.015625 L 2.265625 -1.03125 L 2.5625 -0.109375 C 2.3125 0.0234375 2.03125 0.09375 1.71875 0.09375 C 1.5 0.09375 1.3125 0.0546875 1.15625 -0.015625 C 1 -0.0859375 0.878906 -0.1875 0.796875 -0.3125 C 0.722656 -0.445312 0.664062 -0.582031 0.625 -0.71875 C 0.59375 -0.863281 0.578125 -1.015625 0.578125 -1.171875 L 0.578125 -2.4375 L 0.109375 -2.4375 L 0.109375 -3.3125 Z M 0.578125 -3.3125 "/></g></g><g style="fill:#ffffff;fill-opacity:1;"><g transform="translate(151.019665, 42.50486)"><path style="stroke:none" d="M 0.703125 -0.390625 C 0.335938 -0.722656 0.15625 -1.144531 0.15625 -1.65625 C 0.15625 -2.164062 0.34375 -2.585938 0.71875 -2.921875 C 1.101562 -3.253906 1.578125 -3.421875 2.140625 -3.421875 C 2.703125 -3.421875 3.171875 -3.253906 3.546875 -2.921875 C 3.929688 -2.585938 4.125 -2.164062 4.125 -1.65625 C 4.125 -1.144531 3.9375 -0.722656 3.5625 -0.390625 C 3.195312 -0.0664062 2.722656 0.09375 2.140625 0.09375 C 1.546875 0.09375 1.066406 -0.0664062 0.703125 -0.390625 Z M 1.578125 -2.21875 C 1.429688 -2.070312 1.359375 -1.882812 1.359375 -1.65625 C 1.359375 -1.425781 1.429688 -1.238281 1.578125 -1.09375 C 1.722656 -0.945312 1.910156 -0.875 2.140625 -0.875 C 2.367188 -0.875 2.550781 -0.945312 2.6875 -1.09375 C 2.832031 -1.238281 2.90625 -1.425781 2.90625 -1.65625 C 2.90625 -1.882812 2.832031 -2.070312 2.6875 -2.21875 C 2.539062 -2.363281 2.359375 -2.4375 2.140625 -2.4375 C 1.921875 -2.4375 1.734375 -2.363281 1.578125 -2.21875 Z M 1.578125 -2.21875 "/></g></g><g style="fill:#ffffff;fill-opacity:1;"><g transform="translate(155.281339, 42.50486)"><path style="stroke:none" d="M 0.390625 0 L 0.390625 -3.3125 L 1.53125 -3.3125 L 1.53125 -2.84375 L 1.546875 -2.84375 C 1.554688 -2.851562 1.570312 -2.867188 1.59375 -2.890625 C 1.613281 -2.921875 1.65625 -2.96875 1.71875 -3.03125 C 1.78125 -3.101562 1.847656 -3.164062 1.921875 -3.21875 C 1.992188 -3.269531 2.085938 -3.316406 2.203125 -3.359375 C 2.316406 -3.398438 2.4375 -3.421875 2.5625 -3.421875 C 2.6875 -3.421875 2.804688 -3.398438 2.921875 -3.359375 C 3.046875 -3.328125 3.140625 -3.296875 3.203125 -3.265625 L 3.28125 -3.203125 L 2.8125 -2.234375 C 2.664062 -2.359375 2.46875 -2.421875 2.21875 -2.421875 C 2.070312 -2.421875 1.945312 -2.390625 1.84375 -2.328125 C 1.75 -2.265625 1.679688 -2.191406 1.640625 -2.109375 C 1.597656 -2.023438 1.566406 -1.953125 1.546875 -1.890625 C 1.535156 -1.828125 1.53125 -1.78125 1.53125 -1.75 L 1.53125 0 Z M 0.390625 0 "/></g></g><g style="fill:#ffffff;fill-opacity:1;"><g transform="translate(158.501849, 42.50486)"><path style="stroke:none" d=""/></g></g><g style="fill:#ffffff;fill-opacity:1;"><g transform="translate(160.267305, 42.50486)"><path style="stroke:none" d="M 0.390625 -5.34375 L 2.296875 -5.34375 C 2.804688 -5.34375 3.222656 -5.203125 3.546875 -4.921875 C 3.867188 -4.648438 4.03125 -4.257812 4.03125 -3.75 C 4.03125 -3.351562 3.929688 -3.023438 3.734375 -2.765625 C 3.546875 -2.503906 3.28125 -2.316406 2.9375 -2.203125 L 4.78125 0 L 3.234375 0 L 1.609375 -2.109375 L 1.609375 0 L 0.390625 0 Z M 1.609375 -2.96875 L 1.75 -2.96875 C 1.863281 -2.96875 1.957031 -2.96875 2.03125 -2.96875 C 2.101562 -2.976562 2.1875 -2.992188 2.28125 -3.015625 C 2.382812 -3.046875 2.46875 -3.082031 2.53125 -3.125 C 2.59375 -3.175781 2.644531 -3.242188 2.6875 -3.328125 C 2.726562 -3.421875 2.75 -3.53125 2.75 -3.65625 C 2.75 -3.789062 2.726562 -3.90625 2.6875 -4 C 2.644531 -4.09375 2.59375 -4.160156 2.53125 -4.203125 C 2.46875 -4.253906 2.382812 -4.289062 2.28125 -4.3125 C 2.1875 -4.34375 2.101562 -4.359375 2.03125 -4.359375 C 1.957031 -4.359375 1.863281 -4.359375 1.75 -4.359375 L 1.609375 -4.359375 Z M 1.609375 -2.96875 "/></g></g><g style="fill:#ffffff;fill-opacity:1;"><g transform="translate(164.742391, 42.50486)"><path style="stroke:none" d="M 0.703125 -0.390625 C 0.335938 -0.722656 0.15625 -1.144531 0.15625 -1.65625 C 0.15625 -2.164062 0.34375 -2.585938 0.71875 -2.921875 C 1.101562 -3.253906 1.578125 -3.421875 2.140625 -3.421875 C 2.703125 -3.421875 3.171875 -3.253906 3.546875 -2.921875 C 3.929688 -2.585938 4.125 -2.164062 4.125 -1.65625 C 4.125 -1.144531 3.9375 -0.722656 3.5625 -0.390625 C 3.195312 -0.0664062 2.722656 0.09375 2.140625 0.09375 C 1.546875 0.09375 1.066406 -0.0664062 0.703125 -0.390625 Z M 1.578125 -2.21875 C 1.429688 -2.070312 1.359375 -1.882812 1.359375 -1.65625 C 1.359375 -1.425781 1.429688 -1.238281 1.578125 -1.09375 C 1.722656 -0.945312 1.910156 -0.875 2.140625 -0.875 C 2.367188 -0.875 2.550781 -0.945312 2.6875 -1.09375 C 2.832031 -1.238281 2.90625 -1.425781 2.90625 -1.65625 C 2.90625 -1.882812 2.832031 -2.070312 2.6875 -2.21875 C 2.539062 -2.363281 2.359375 -2.4375 2.140625 -2.4375 C 1.921875 -2.4375 1.734375 -2.363281 1.578125 -2.21875 Z M 1.578125 -2.21875 "/></g></g><g style="fill:#ffffff;fill-opacity:1;"><g transform="translate(169.017, 42.50486)"><path style="stroke:none" d="M 0.609375 -0.40625 C 0.304688 -0.75 0.15625 -1.164062 0.15625 -1.65625 C 0.15625 -2.144531 0.304688 -2.5625 0.609375 -2.90625 C 0.921875 -3.25 1.316406 -3.421875 1.796875 -3.421875 C 2.234375 -3.421875 2.597656 -3.28125 2.890625 -3 L 2.890625 -5.5625 L 4.03125 -5.5625 L 4.03125 0 L 2.890625 0 L 2.890625 -0.375 C 2.597656 -0.0625 2.234375 0.09375 1.796875 0.09375 C 1.316406 0.09375 0.921875 -0.0703125 0.609375 -0.40625 Z M 1.578125 -2.21875 C 1.429688 -2.070312 1.359375 -1.882812 1.359375 -1.65625 C 1.359375 -1.425781 1.429688 -1.238281 1.578125 -1.09375 C 1.722656 -0.945312 1.910156 -0.875 2.140625 -0.875 C 2.367188 -0.875 2.550781 -0.945312 2.6875 -1.09375 C 2.832031 -1.238281 2.90625 -1.425781 2.90625 -1.65625 C 2.90625 -1.882812 2.832031 -2.070312 2.6875 -2.21875 C 2.539062 -2.363281 2.359375 -2.4375 2.140625 -2.4375 C 1.921875 -2.4375 1.734375 -2.363281 1.578125 -2.21875 Z M 1.578125 -2.21875 "/></g></g><g style="fill:#ffffff;fill-opacity:1;"><g transform="translate(173.433884, 42.50486)"><path style="stroke:none" d="M 0.390625 0 L 0.390625 -3.3125 L 1.53125 -3.3125 L 1.53125 -2.84375 L 1.546875 -2.84375 C 1.554688 -2.851562 1.570312 -2.867188 1.59375 -2.890625 C 1.613281 -2.921875 1.65625 -2.96875 1.71875 -3.03125 C 1.78125 -3.101562 1.847656 -3.164062 1.921875 -3.21875 C 1.992188 -3.269531 2.085938 -3.316406 2.203125 -3.359375 C 2.316406 -3.398438 2.4375 -3.421875 2.5625 -3.421875 C 2.6875 -3.421875 2.804688 -3.398438 2.921875 -3.359375 C 3.046875 -3.328125 3.140625 -3.296875 3.203125 -3.265625 L 3.28125 -3.203125 L 2.8125 -2.234375 C 2.664062 -2.359375 2.46875 -2.421875 2.21875 -2.421875 C 2.070312 -2.421875 1.945312 -2.390625 1.84375 -2.328125 C 1.75 -2.265625 1.679688 -2.191406 1.640625 -2.109375 C 1.597656 -2.023438 1.566406 -1.953125 1.546875 -1.890625 C 1.535156 -1.828125 1.53125 -1.78125 1.53125 -1.75 L 1.53125 0 Z M 0.390625 0 "/></g></g><g style="fill:#ffffff;fill-opacity:1;"><g transform="translate(176.654393, 42.50486)"><path style="stroke:none" d="M 0.5 -5.171875 C 0.632812 -5.304688 0.789062 -5.375 0.96875 -5.375 C 1.15625 -5.375 1.316406 -5.304688 1.453125 -5.171875 C 1.585938 -5.035156 1.65625 -4.875 1.65625 -4.6875 C 1.65625 -4.5 1.585938 -4.335938 1.453125 -4.203125 C 1.316406 -4.078125 1.15625 -4.015625 0.96875 -4.015625 C 0.789062 -4.015625 0.632812 -4.078125 0.5 -4.203125 C 0.363281 -4.335938 0.296875 -4.5 0.296875 -4.6875 C 0.296875 -4.875 0.363281 -5.035156 0.5 -5.171875 Z M 0.390625 -3.3125 L 0.390625 0 L 1.53125 0 L 1.53125 -3.3125 Z M 0.390625 -3.3125 "/></g></g><g style="fill:#ffffff;fill-opacity:1;"><g transform="translate(178.607391, 42.50486)"><path style="stroke:none" d="M 0.234375 0.8125 L 1.171875 0.359375 C 1.347656 0.640625 1.648438 0.78125 2.078125 0.78125 C 2.273438 0.78125 2.457031 0.71875 2.625 0.59375 C 2.800781 0.46875 2.890625 0.269531 2.890625 0 L 2.890625 -0.234375 C 2.679688 -0.015625 2.316406 0.09375 1.796875 0.09375 C 1.316406 0.09375 0.921875 -0.0703125 0.609375 -0.40625 C 0.304688 -0.75 0.15625 -1.164062 0.15625 -1.65625 C 0.15625 -2.144531 0.304688 -2.5625 0.609375 -2.90625 C 0.921875 -3.25 1.316406 -3.421875 1.796875 -3.421875 C 2.222656 -3.421875 2.578125 -3.285156 2.859375 -3.015625 L 2.890625 -3.015625 L 2.890625 -3.3125 L 4.03125 -3.3125 L 4.03125 0.09375 C 4.03125 0.632812 3.847656 1.050781 3.484375 1.34375 C 3.128906 1.632812 2.660156 1.78125 2.078125 1.78125 C 1.128906 1.78125 0.515625 1.457031 0.234375 0.8125 Z M 1.578125 -2.21875 C 1.429688 -2.070312 1.359375 -1.882812 1.359375 -1.65625 C 1.359375 -1.425781 1.429688 -1.238281 1.578125 -1.09375 C 1.722656 -0.945312 1.910156 -0.875 2.140625 -0.875 C 2.367188 -0.875 2.550781 -0.945312 2.6875 -1.09375 C 2.832031 -1.238281 2.90625 -1.425781 2.90625 -1.65625 C 2.90625 -1.882812 2.832031 -2.070312 2.6875 -2.21875 C 2.539062 -2.363281 2.359375 -2.4375 2.140625 -2.4375 C 1.921875 -2.4375 1.734375 -2.363281 1.578125 -2.21875 Z M 1.578125 -2.21875 "/></g></g><g style="fill:#ffffff;fill-opacity:1;"><g transform="translate(183.024275, 42.50486)"><path style="stroke:none" d="M 1.46875 -3.3125 L 1.46875 -1.734375 C 1.46875 -1.410156 1.515625 -1.175781 1.609375 -1.03125 C 1.710938 -0.894531 1.882812 -0.828125 2.125 -0.828125 C 2.363281 -0.828125 2.53125 -0.894531 2.625 -1.03125 C 2.726562 -1.175781 2.78125 -1.410156 2.78125 -1.734375 L 2.78125 -3.3125 L 3.921875 -3.3125 L 3.921875 -1.46875 C 3.921875 -0.914062 3.773438 -0.515625 3.484375 -0.265625 C 3.203125 -0.0234375 2.75 0.09375 2.125 0.09375 C 1.5 0.09375 1.039062 -0.0234375 0.75 -0.265625 C 0.46875 -0.515625 0.328125 -0.914062 0.328125 -1.46875 L 0.328125 -3.3125 Z M 1.46875 -3.3125 "/></g></g><g style="fill:#ffffff;fill-opacity:1;"><g transform="translate(187.266551, 42.50486)"><path style="stroke:none" d="M 3.75 -1.5 L 1.34375 -1.5 C 1.34375 -1.269531 1.414062 -1.097656 1.5625 -0.984375 C 1.71875 -0.867188 1.882812 -0.8125 2.0625 -0.8125 C 2.238281 -0.8125 2.378906 -0.835938 2.484375 -0.890625 C 2.597656 -0.941406 2.722656 -1.039062 2.859375 -1.1875 L 3.6875 -0.765625 C 3.34375 -0.191406 2.769531 0.09375 1.96875 0.09375 C 1.46875 0.09375 1.039062 -0.078125 0.6875 -0.421875 C 0.332031 -0.765625 0.15625 -1.175781 0.15625 -1.65625 C 0.15625 -2.132812 0.332031 -2.546875 0.6875 -2.890625 C 1.039062 -3.242188 1.46875 -3.421875 1.96875 -3.421875 C 2.5 -3.421875 2.925781 -3.265625 3.25 -2.953125 C 3.582031 -2.648438 3.75 -2.21875 3.75 -1.65625 C 3.75 -1.582031 3.75 -1.53125 3.75 -1.5 Z M 1.375 -2.140625 L 2.625 -2.140625 C 2.601562 -2.304688 2.535156 -2.4375 2.421875 -2.53125 C 2.316406 -2.625 2.175781 -2.671875 2 -2.671875 C 1.8125 -2.671875 1.660156 -2.617188 1.546875 -2.515625 C 1.441406 -2.421875 1.382812 -2.296875 1.375 -2.140625 Z M 1.375 -2.140625 "/></g></g><g style="fill:#ffffff;fill-opacity:1;"><g transform="translate(191.140214, 42.50486)"><path style="stroke:none" d="M 1.828125 -3.421875 C 2.015625 -3.421875 2.203125 -3.394531 2.390625 -3.34375 C 2.578125 -3.300781 2.71875 -3.257812 2.8125 -3.21875 L 2.9375 -3.15625 L 2.5625 -2.40625 C 2.3125 -2.539062 2.066406 -2.609375 1.828125 -2.609375 C 1.703125 -2.609375 1.609375 -2.59375 1.546875 -2.5625 C 1.492188 -2.539062 1.46875 -2.488281 1.46875 -2.40625 C 1.46875 -2.394531 1.46875 -2.378906 1.46875 -2.359375 C 1.476562 -2.335938 1.488281 -2.320312 1.5 -2.3125 C 1.519531 -2.300781 1.535156 -2.285156 1.546875 -2.265625 C 1.554688 -2.253906 1.570312 -2.242188 1.59375 -2.234375 C 1.625 -2.222656 1.644531 -2.210938 1.65625 -2.203125 C 1.675781 -2.203125 1.703125 -2.191406 1.734375 -2.171875 C 1.765625 -2.160156 1.789062 -2.148438 1.8125 -2.140625 C 1.832031 -2.140625 1.859375 -2.132812 1.890625 -2.125 C 1.929688 -2.113281 1.96875 -2.101562 2 -2.09375 C 2.125 -2.050781 2.234375 -2.003906 2.328125 -1.953125 C 2.429688 -1.910156 2.539062 -1.847656 2.65625 -1.765625 C 2.769531 -1.691406 2.851562 -1.59375 2.90625 -1.46875 C 2.96875 -1.34375 3 -1.195312 3 -1.03125 C 3 -0.28125 2.472656 0.09375 1.421875 0.09375 C 1.191406 0.09375 0.96875 0.0546875 0.75 -0.015625 C 0.539062 -0.0859375 0.390625 -0.160156 0.296875 -0.234375 L 0.15625 -0.34375 L 0.609375 -1.125 C 0.648438 -1.101562 0.695312 -1.070312 0.75 -1.03125 C 0.800781 -0.988281 0.898438 -0.929688 1.046875 -0.859375 C 1.203125 -0.785156 1.332031 -0.75 1.4375 -0.75 C 1.675781 -0.75 1.796875 -0.828125 1.796875 -0.984375 C 1.796875 -1.054688 1.765625 -1.113281 1.703125 -1.15625 C 1.640625 -1.195312 1.535156 -1.242188 1.390625 -1.296875 C 1.242188 -1.347656 1.128906 -1.394531 1.046875 -1.4375 C 0.847656 -1.550781 0.6875 -1.675781 0.5625 -1.8125 C 0.4375 -1.945312 0.375 -2.125 0.375 -2.34375 C 0.375 -2.6875 0.503906 -2.953125 0.765625 -3.140625 C 1.035156 -3.328125 1.390625 -3.421875 1.828125 -3.421875 Z M 1.828125 -3.421875 "/></g></g><g style="fill:#ffffff;fill-opacity:1;"><g transform="translate(194.322095, 42.50486)"><path style="stroke:none" d=""/></g></g><g style="fill:#fcb40e;fill-opacity:1;"><g transform="translate(196.286689, 42.50486)"><path style="stroke:none" d="M 0.1875 -1.40625 C 0.1875 -1.5625 0.222656 -1.710938 0.296875 -1.859375 C 0.367188 -2.003906 0.472656 -2.132812 0.609375 -2.25 C 0.742188 -2.375 0.878906 -2.484375 1.015625 -2.578125 C 1.148438 -2.671875 1.304688 -2.765625 1.484375 -2.859375 C 1.128906 -3.304688 0.953125 -3.703125 0.953125 -4.046875 C 0.953125 -4.460938 1.097656 -4.796875 1.390625 -5.046875 C 1.691406 -5.304688 2.113281 -5.4375 2.65625 -5.4375 C 3.15625 -5.4375 3.539062 -5.296875 3.8125 -5.015625 C 4.09375 -4.734375 4.234375 -4.410156 4.234375 -4.046875 C 4.234375 -3.890625 4.195312 -3.738281 4.125 -3.59375 C 4.050781 -3.457031 3.960938 -3.335938 3.859375 -3.234375 C 3.765625 -3.128906 3.664062 -3.035156 3.5625 -2.953125 C 3.457031 -2.878906 3.367188 -2.820312 3.296875 -2.78125 L 3.1875 -2.734375 L 3.890625 -2 C 4.046875 -2.0625 4.304688 -2.285156 4.671875 -2.671875 L 5.421875 -1.921875 C 5.179688 -1.648438 4.929688 -1.410156 4.671875 -1.203125 L 5.828125 0 L 4.28125 0 L 3.765625 -0.546875 C 3.597656 -0.429688 3.472656 -0.347656 3.390625 -0.296875 C 3.316406 -0.242188 3.203125 -0.179688 3.046875 -0.109375 C 2.898438 -0.0351562 2.742188 0.015625 2.578125 0.046875 C 2.410156 0.078125 2.234375 0.09375 2.046875 0.09375 C 1.878906 0.09375 1.710938 0.078125 1.546875 0.046875 C 1.378906 0.0234375 1.210938 -0.0195312 1.046875 -0.09375 C 0.878906 -0.164062 0.734375 -0.253906 0.609375 -0.359375 C 0.484375 -0.472656 0.378906 -0.617188 0.296875 -0.796875 C 0.222656 -0.972656 0.1875 -1.175781 0.1875 -1.40625 Z M 2.65625 -4.578125 C 2.5 -4.578125 2.378906 -4.523438 2.296875 -4.421875 C 2.222656 -4.328125 2.1875 -4.203125 2.1875 -4.046875 C 2.1875 -3.953125 2.21875 -3.847656 2.28125 -3.734375 C 2.34375 -3.628906 2.410156 -3.546875 2.484375 -3.484375 L 2.578125 -3.390625 C 2.972656 -3.609375 3.171875 -3.828125 3.171875 -4.046875 C 3.171875 -4.398438 3 -4.578125 2.65625 -4.578125 Z M 2.96875 -1.359375 L 2.125 -2.1875 C 2.113281 -2.1875 2.09375 -2.179688 2.0625 -2.171875 C 2.039062 -2.160156 1.992188 -2.132812 1.921875 -2.09375 C 1.859375 -2.050781 1.800781 -2.003906 1.75 -1.953125 C 1.707031 -1.898438 1.664062 -1.832031 1.625 -1.75 C 1.582031 -1.675781 1.5625 -1.59375 1.5625 -1.5 C 1.5625 -1.351562 1.617188 -1.238281 1.734375 -1.15625 C 1.859375 -1.082031 2.003906 -1.046875 2.171875 -1.046875 C 2.296875 -1.046875 2.425781 -1.070312 2.5625 -1.125 C 2.695312 -1.175781 2.796875 -1.226562 2.859375 -1.28125 Z M 2.96875 -1.359375 "/></g></g><g style="fill:#fcb40e;fill-opacity:1;"><g transform="translate(201.675722, 42.50486)"><path style="stroke:none" d=""/></g></g><g style="fill:#ffffff;fill-opacity:1;"><g transform="translate(203.154878, 42.50486)"><path style="stroke:none" d="M 0.390625 -5.34375 L 1.9375 -5.34375 C 2.675781 -5.34375 3.304688 -5.085938 3.828125 -4.578125 C 4.359375 -4.066406 4.625 -3.429688 4.625 -2.671875 C 4.625 -1.898438 4.359375 -1.257812 3.828125 -0.75 C 3.304688 -0.25 2.675781 0 1.9375 0 L 0.390625 0 Z M 1.609375 -1.09375 L 1.796875 -1.09375 C 2.234375 -1.09375 2.59375 -1.238281 2.875 -1.53125 C 3.164062 -1.832031 3.3125 -2.210938 3.3125 -2.671875 C 3.3125 -3.117188 3.171875 -3.492188 2.890625 -3.796875 C 2.609375 -4.097656 2.242188 -4.25 1.796875 -4.25 L 1.609375 -4.25 Z M 1.609375 -1.09375 "/></g></g><g style="fill:#ffffff;fill-opacity:1;"><g transform="translate(207.927439, 42.50486)"><path style="stroke:none" d="M 0.703125 -0.390625 C 0.335938 -0.722656 0.15625 -1.144531 0.15625 -1.65625 C 0.15625 -2.164062 0.34375 -2.585938 0.71875 -2.921875 C 1.101562 -3.253906 1.578125 -3.421875 2.140625 -3.421875 C 2.703125 -3.421875 3.171875 -3.253906 3.546875 -2.921875 C 3.929688 -2.585938 4.125 -2.164062 4.125 -1.65625 C 4.125 -1.144531 3.9375 -0.722656 3.5625 -0.390625 C 3.195312 -0.0664062 2.722656 0.09375 2.140625 0.09375 C 1.546875 0.09375 1.066406 -0.0664062 0.703125 -0.390625 Z M 1.578125 -2.21875 C 1.429688 -2.070312 1.359375 -1.882812 1.359375 -1.65625 C 1.359375 -1.425781 1.429688 -1.238281 1.578125 -1.09375 C 1.722656 -0.945312 1.910156 -0.875 2.140625 -0.875 C 2.367188 -0.875 2.550781 -0.945312 2.6875 -1.09375 C 2.832031 -1.238281 2.90625 -1.425781 2.90625 -1.65625 C 2.90625 -1.882812 2.832031 -2.070312 2.6875 -2.21875 C 2.539062 -2.363281 2.359375 -2.4375 2.140625 -2.4375 C 1.921875 -2.4375 1.734375 -2.363281 1.578125 -2.21875 Z M 1.578125 -2.21875 "/></g></g><g style="fill:#ffffff;fill-opacity:1;"><g transform="translate(212.202048, 42.50486)"><path style="stroke:none" d="M 1.46875 -3.3125 L 1.46875 -1.734375 C 1.46875 -1.410156 1.515625 -1.175781 1.609375 -1.03125 C 1.710938 -0.894531 1.882812 -0.828125 2.125 -0.828125 C 2.363281 -0.828125 2.53125 -0.894531 2.625 -1.03125 C 2.726562 -1.175781 2.78125 -1.410156 2.78125 -1.734375 L 2.78125 -3.3125 L 3.921875 -3.3125 L 3.921875 -1.46875 C 3.921875 -0.914062 3.773438 -0.515625 3.484375 -0.265625 C 3.203125 -0.0234375 2.75 0.09375 2.125 0.09375 C 1.5 0.09375 1.039062 -0.0234375 0.75 -0.265625 C 0.46875 -0.515625 0.328125 -0.914062 0.328125 -1.46875 L 0.328125 -3.3125 Z M 1.46875 -3.3125 "/></g></g><g style="fill:#ffffff;fill-opacity:1;"><g transform="translate(216.444325, 42.50486)"><path style="stroke:none" d="M 0.234375 0.8125 L 1.171875 0.359375 C 1.347656 0.640625 1.648438 0.78125 2.078125 0.78125 C 2.273438 0.78125 2.457031 0.71875 2.625 0.59375 C 2.800781 0.46875 2.890625 0.269531 2.890625 0 L 2.890625 -0.234375 C 2.679688 -0.015625 2.316406 0.09375 1.796875 0.09375 C 1.316406 0.09375 0.921875 -0.0703125 0.609375 -0.40625 C 0.304688 -0.75 0.15625 -1.164062 0.15625 -1.65625 C 0.15625 -2.144531 0.304688 -2.5625 0.609375 -2.90625 C 0.921875 -3.25 1.316406 -3.421875 1.796875 -3.421875 C 2.222656 -3.421875 2.578125 -3.285156 2.859375 -3.015625 L 2.890625 -3.015625 L 2.890625 -3.3125 L 4.03125 -3.3125 L 4.03125 0.09375 C 4.03125 0.632812 3.847656 1.050781 3.484375 1.34375 C 3.128906 1.632812 2.660156 1.78125 2.078125 1.78125 C 1.128906 1.78125 0.515625 1.457031 0.234375 0.8125 Z M 1.578125 -2.21875 C 1.429688 -2.070312 1.359375 -1.882812 1.359375 -1.65625 C 1.359375 -1.425781 1.429688 -1.238281 1.578125 -1.09375 C 1.722656 -0.945312 1.910156 -0.875 2.140625 -0.875 C 2.367188 -0.875 2.550781 -0.945312 2.6875 -1.09375 C 2.832031 -1.238281 2.90625 -1.425781 2.90625 -1.65625 C 2.90625 -1.882812 2.832031 -2.070312 2.6875 -2.21875 C 2.539062 -2.363281 2.359375 -2.4375 2.140625 -2.4375 C 1.921875 -2.4375 1.734375 -2.363281 1.578125 -2.21875 Z M 1.578125 -2.21875 "/></g></g><g style="fill:#ffffff;fill-opacity:1;"><g transform="translate(220.861208, 42.50486)"><path style="stroke:none" d="M 0.390625 0 L 0.390625 -5.5625 L 1.53125 -5.5625 L 1.53125 0 Z M 0.390625 0 "/></g></g><g style="fill:#ffffff;fill-opacity:1;"><g transform="translate(222.781873, 42.50486)"><path style="stroke:none" d="M 0.609375 -0.40625 C 0.304688 -0.75 0.15625 -1.164062 0.15625 -1.65625 C 0.15625 -2.144531 0.304688 -2.5625 0.609375 -2.90625 C 0.921875 -3.25 1.316406 -3.421875 1.796875 -3.421875 C 2.234375 -3.421875 2.597656 -3.28125 2.890625 -3 L 2.890625 -3.3125 L 4.03125 -3.3125 L 4.03125 0 L 2.890625 0 L 2.890625 -0.375 C 2.597656 -0.0625 2.234375 0.09375 1.796875 0.09375 C 1.316406 0.09375 0.921875 -0.0703125 0.609375 -0.40625 Z M 1.578125 -2.21875 C 1.429688 -2.070312 1.359375 -1.882812 1.359375 -1.65625 C 1.359375 -1.425781 1.429688 -1.238281 1.578125 -1.09375 C 1.722656 -0.945312 1.910156 -0.875 2.140625 -0.875 C 2.367188 -0.875 2.550781 -0.945312 2.6875 -1.09375 C 2.832031 -1.238281 2.90625 -1.425781 2.90625 -1.65625 C 2.90625 -1.882812 2.832031 -2.070312 2.6875 -2.21875 C 2.539062 -2.363281 2.359375 -2.4375 2.140625 -2.4375 C 1.921875 -2.4375 1.734375 -2.363281 1.578125 -2.21875 Z M 1.578125 -2.21875 "/></g></g><g style="fill:#ffffff;fill-opacity:1;"><g transform="translate(227.172887, 42.50486)"><path style="stroke:none" d="M 1.828125 -3.421875 C 2.015625 -3.421875 2.203125 -3.394531 2.390625 -3.34375 C 2.578125 -3.300781 2.71875 -3.257812 2.8125 -3.21875 L 2.9375 -3.15625 L 2.5625 -2.40625 C 2.3125 -2.539062 2.066406 -2.609375 1.828125 -2.609375 C 1.703125 -2.609375 1.609375 -2.59375 1.546875 -2.5625 C 1.492188 -2.539062 1.46875 -2.488281 1.46875 -2.40625 C 1.46875 -2.394531 1.46875 -2.378906 1.46875 -2.359375 C 1.476562 -2.335938 1.488281 -2.320312 1.5 -2.3125 C 1.519531 -2.300781 1.535156 -2.285156 1.546875 -2.265625 C 1.554688 -2.253906 1.570312 -2.242188 1.59375 -2.234375 C 1.625 -2.222656 1.644531 -2.210938 1.65625 -2.203125 C 1.675781 -2.203125 1.703125 -2.191406 1.734375 -2.171875 C 1.765625 -2.160156 1.789062 -2.148438 1.8125 -2.140625 C 1.832031 -2.140625 1.859375 -2.132812 1.890625 -2.125 C 1.929688 -2.113281 1.96875 -2.101562 2 -2.09375 C 2.125 -2.050781 2.234375 -2.003906 2.328125 -1.953125 C 2.429688 -1.910156 2.539062 -1.847656 2.65625 -1.765625 C 2.769531 -1.691406 2.851562 -1.59375 2.90625 -1.46875 C 2.96875 -1.34375 3 -1.195312 3 -1.03125 C 3 -0.28125 2.472656 0.09375 1.421875 0.09375 C 1.191406 0.09375 0.96875 0.0546875 0.75 -0.015625 C 0.539062 -0.0859375 0.390625 -0.160156 0.296875 -0.234375 L 0.15625 -0.34375 L 0.609375 -1.125 C 0.648438 -1.101562 0.695312 -1.070312 0.75 -1.03125 C 0.800781 -0.988281 0.898438 -0.929688 1.046875 -0.859375 C 1.203125 -0.785156 1.332031 -0.75 1.4375 -0.75 C 1.675781 -0.75 1.796875 -0.828125 1.796875 -0.984375 C 1.796875 -1.054688 1.765625 -1.113281 1.703125 -1.15625 C 1.640625 -1.195312 1.535156 -1.242188 1.390625 -1.296875 C 1.242188 -1.347656 1.128906 -1.394531 1.046875 -1.4375 C 0.847656 -1.550781 0.6875 -1.675781 0.5625 -1.8125 C 0.4375 -1.945312 0.375 -2.125 0.375 -2.34375 C 0.375 -2.6875 0.503906 -2.953125 0.765625 -3.140625 C 1.035156 -3.328125 1.390625 -3.421875 1.828125 -3.421875 Z M 1.828125 -3.421875 "/></g></g><g style="fill:#ffffff;fill-opacity:1;"><g transform="translate(230.354593, 42.50486)"><path style="stroke:none" d=""/></g></g><g style="fill:#ffffff;fill-opacity:1;"><g transform="translate(232.120048, 42.50486)"><path style="stroke:none" d="M 0.390625 -5.34375 L 2.296875 -5.34375 C 2.804688 -5.34375 3.222656 -5.203125 3.546875 -4.921875 C 3.867188 -4.648438 4.03125 -4.257812 4.03125 -3.75 C 4.03125 -3.351562 3.929688 -3.023438 3.734375 -2.765625 C 3.546875 -2.503906 3.28125 -2.316406 2.9375 -2.203125 L 4.78125 0 L 3.234375 0 L 1.609375 -2.109375 L 1.609375 0 L 0.390625 0 Z M 1.609375 -2.96875 L 1.75 -2.96875 C 1.863281 -2.96875 1.957031 -2.96875 2.03125 -2.96875 C 2.101562 -2.976562 2.1875 -2.992188 2.28125 -3.015625 C 2.382812 -3.046875 2.46875 -3.082031 2.53125 -3.125 C 2.59375 -3.175781 2.644531 -3.242188 2.6875 -3.328125 C 2.726562 -3.421875 2.75 -3.53125 2.75 -3.65625 C 2.75 -3.789062 2.726562 -3.90625 2.6875 -4 C 2.644531 -4.09375 2.59375 -4.160156 2.53125 -4.203125 C 2.46875 -4.253906 2.382812 -4.289062 2.28125 -4.3125 C 2.1875 -4.34375 2.101562 -4.359375 2.03125 -4.359375 C 1.957031 -4.359375 1.863281 -4.359375 1.75 -4.359375 L 1.609375 -4.359375 Z M 1.609375 -2.96875 "/></g></g><g style="fill:#ffffff;fill-opacity:1;"><g transform="translate(236.595135, 42.50486)"><path style="stroke:none" d="M 0.703125 -0.390625 C 0.335938 -0.722656 0.15625 -1.144531 0.15625 -1.65625 C 0.15625 -2.164062 0.34375 -2.585938 0.71875 -2.921875 C 1.101562 -3.253906 1.578125 -3.421875 2.140625 -3.421875 C 2.703125 -3.421875 3.171875 -3.253906 3.546875 -2.921875 C 3.929688 -2.585938 4.125 -2.164062 4.125 -1.65625 C 4.125 -1.144531 3.9375 -0.722656 3.5625 -0.390625 C 3.195312 -0.0664062 2.722656 0.09375 2.140625 0.09375 C 1.546875 0.09375 1.066406 -0.0664062 0.703125 -0.390625 Z M 1.578125 -2.21875 C 1.429688 -2.070312 1.359375 -1.882812 1.359375 -1.65625 C 1.359375 -1.425781 1.429688 -1.238281 1.578125 -1.09375 C 1.722656 -0.945312 1.910156 -0.875 2.140625 -0.875 C 2.367188 -0.875 2.550781 -0.945312 2.6875 -1.09375 C 2.832031 -1.238281 2.90625 -1.425781 2.90625 -1.65625 C 2.90625 -1.882812 2.832031 -2.070312 2.6875 -2.21875 C 2.539062 -2.363281 2.359375 -2.4375 2.140625 -2.4375 C 1.921875 -2.4375 1.734375 -2.363281 1.578125 -2.21875 Z M 1.578125 -2.21875 "/></g></g><g style="fill:#ffffff;fill-opacity:1;"><g transform="translate(240.869744, 42.50486)"><path style="stroke:none" d="M 2.15625 -2.484375 C 1.9375 -2.484375 1.75 -2.398438 1.59375 -2.234375 C 1.4375 -2.078125 1.359375 -1.882812 1.359375 -1.65625 C 1.359375 -1.425781 1.4375 -1.234375 1.59375 -1.078125 C 1.75 -0.921875 1.9375 -0.84375 2.15625 -0.84375 C 2.257812 -0.84375 2.359375 -0.851562 2.453125 -0.875 C 2.546875 -0.90625 2.613281 -0.929688 2.65625 -0.953125 L 2.703125 -1 L 3.09375 -0.203125 C 3.0625 -0.179688 3.019531 -0.15625 2.96875 -0.125 C 2.914062 -0.09375 2.789062 -0.0507812 2.59375 0 C 2.40625 0.0625 2.203125 0.09375 1.984375 0.09375 C 1.492188 0.09375 1.066406 -0.078125 0.703125 -0.421875 C 0.335938 -0.765625 0.15625 -1.175781 0.15625 -1.65625 C 0.15625 -2.132812 0.335938 -2.546875 0.703125 -2.890625 C 1.066406 -3.242188 1.492188 -3.421875 1.984375 -3.421875 C 2.203125 -3.421875 2.40625 -3.394531 2.59375 -3.34375 C 2.78125 -3.289062 2.910156 -3.238281 2.984375 -3.1875 L 3.09375 -3.109375 L 2.703125 -2.328125 C 2.566406 -2.429688 2.382812 -2.484375 2.15625 -2.484375 Z M 2.15625 -2.484375 "/></g></g><g style="fill:#ffffff;fill-opacity:1;"><g transform="translate(244.044986, 42.50486)"><path style="stroke:none" d="M 0.390625 0 L 0.390625 -5.5625 L 1.53125 -5.5625 L 1.53125 -2.96875 L 1.546875 -2.96875 C 1.847656 -3.269531 2.164062 -3.421875 2.5 -3.421875 C 2.664062 -3.421875 2.828125 -3.394531 2.984375 -3.34375 C 3.148438 -3.300781 3.304688 -3.234375 3.453125 -3.140625 C 3.597656 -3.054688 3.71875 -2.929688 3.8125 -2.765625 C 3.90625 -2.597656 3.953125 -2.40625 3.953125 -2.1875 L 3.953125 0 L 2.8125 0 L 2.8125 -1.875 C 2.8125 -2.050781 2.753906 -2.203125 2.640625 -2.328125 C 2.535156 -2.453125 2.394531 -2.515625 2.21875 -2.515625 C 2.039062 -2.515625 1.878906 -2.445312 1.734375 -2.3125 C 1.597656 -2.1875 1.53125 -2.039062 1.53125 -1.875 L 1.53125 0 Z M 0.390625 0 "/></g></g><g style="fill:#ffffff;fill-opacity:1;"><g transform="translate(248.319595, 42.50486)"><path style="stroke:none" d="M 0.609375 -0.40625 C 0.304688 -0.75 0.15625 -1.164062 0.15625 -1.65625 C 0.15625 -2.144531 0.304688 -2.5625 0.609375 -2.90625 C 0.921875 -3.25 1.316406 -3.421875 1.796875 -3.421875 C 2.234375 -3.421875 2.597656 -3.28125 2.890625 -3 L 2.890625 -3.3125 L 4.03125 -3.3125 L 4.03125 0 L 2.890625 0 L 2.890625 -0.375 C 2.597656 -0.0625 2.234375 0.09375 1.796875 0.09375 C 1.316406 0.09375 0.921875 -0.0703125 0.609375 -0.40625 Z M 1.578125 -2.21875 C 1.429688 -2.070312 1.359375 -1.882812 1.359375 -1.65625 C 1.359375 -1.425781 1.429688 -1.238281 1.578125 -1.09375 C 1.722656 -0.945312 1.910156 -0.875 2.140625 -0.875 C 2.367188 -0.875 2.550781 -0.945312 2.6875 -1.09375 C 2.832031 -1.238281 2.90625 -1.425781 2.90625 -1.65625 C 2.90625 -1.882812 2.832031 -2.070312 2.6875 -2.21875 C 2.539062 -2.363281 2.359375 -2.4375 2.140625 -2.4375 C 1.921875 -2.4375 1.734375 -2.363281 1.578125 -2.21875 Z M 1.578125 -2.21875 "/></g></g></g></svg>