<?xml version="1.0" encoding="UTF-8"?>
<svg version="1.1" xmlns="http://www.w3.org/2000/svg" width="512" height="512">
<path d="M0 0 C-0.38671875 1.00417969 -0.7734375 2.00835937 -1.171875 3.04296875 C-16.79357845 43.90978744 -18.69033809 84.77244783 -0.6875 125.4375 C3.16645666 133.79582918 7.60242182 141.54944977 13 149 C13.40943848 149.56879883 13.81887695 150.13759766 14.24072266 150.72363281 C28.36802989 170.08867022 45.79572945 184.90088964 67 196 C68.134375 196.59425781 69.26875 197.18851563 70.4375 197.80078125 C81.20246 203.12424283 92.51303756 206.57295913 104 210 C98.64880509 221.58182546 85.46621475 230.2784164 75 237 C73.90171875 237.70898438 72.8034375 238.41796875 71.671875 239.1484375 C42.87774084 256.6258073 7.43428527 261.0301877 -25.1706543 253.47583008 C-44.8432289 248.53409219 -62.60310334 239.18657544 -78 226 C-78.82113281 225.31292969 -79.64226562 224.62585938 -80.48828125 223.91796875 C-105.44583506 202.37606772 -120.35566194 170.6091426 -122.8359375 137.90625 C-124.84788719 102.26599841 -113.71145525 70.35039079 -91 43 C-90.33871094 42.15308594 -90.33871094 42.15308594 -89.6640625 41.2890625 C-86.24172885 36.94798156 -82.244157 33.50090856 -78 30 C-77.11957031 29.2471875 -76.23914063 28.494375 -75.33203125 27.71875 C-55.0667921 11.15001631 -26.66272083 -1.45433023 0 0 Z " fill="#000000" transform="translate(250,128)"/>
<path d="M0 0 C4.8139763 4.3867003 8.40993214 8.92604188 9.36450195 15.51660156 C9.53993362 23.02871126 7.60291674 28.14662404 4.1875 34.75 C-4.70794379 53.08696296 -6.24148629 69.7187532 0.06640625 89.3125 C2.70356856 96.13604868 6.1396566 101.55764069 11 107 C11.57234375 107.67675781 12.1446875 108.35351562 12.734375 109.05078125 C25.75428907 123.3782508 44.81938472 128.23930446 63.4375 129.4375 C70.25699602 129.99236713 74.04456824 131.77513656 78.75 136.75 C83.35814791 142.31436403 84.62949864 147.82371554 84 155 C79.68518332 172.87566912 61.02492338 186.90256926 46.19433594 196.12255859 C24.0775152 209.38182714 -1.75753737 214.80380202 -27.10546875 209.03125 C-55.05942239 201.94967542 -78.96290219 184.37797007 -93.90234375 159.65234375 C-108.89521935 133.93162954 -113.17910455 104.17837921 -105.65039062 75.27050781 C-97.69328795 47.49233407 -79.02323718 24.59405154 -54.41796875 9.8828125 C-40.51661387 2.22515187 -15.44085708 -9.65453175 0 0 Z " fill="#000000" transform="translate(386,88)"/>
<path d="M0 0 C4.90708223 4.90708223 7.04375389 10.15630831 7.5 17 C7.26046483 26.98677406 1.92033206 32.42550002 -4.75 39.25 C-5.59691406 40.1471875 -6.44382813 41.044375 -7.31640625 41.96875 C-14.0312435 48.93987875 -19.59840244 53.8398935 -29.5 54.5 C-36.15574635 54.40084549 -42.03155131 51.96844869 -46.75 47.25 C-51.00833273 41.09268105 -52.44633994 35.70493347 -51.75 28.25 C-49.8669393 20.46668243 -45.25588801 15.88314274 -39.75 10.25 C-38.47962891 8.90421875 -38.47962891 8.90421875 -37.18359375 7.53125 C-26.18463923 -3.88751194 -14.40496293 -9.16679459 0 0 Z " fill="#000000" transform="translate(149.75,359.75)"/>
<path d="M0 0 C1.28132813 -0.02900391 2.56265625 -0.05800781 3.8828125 -0.08789062 C12.22109854 -0.14342224 20.33986483 0.20729243 26.80908203 6.06323242 C32.23029985 11.90283235 33.34145036 17.47246291 33.1875 25.3046875 C32.56668548 31.28002727 30.26741519 34.88843901 26.125 39.125 C17.75386283 44.75941925 10.23268476 44.77684457 0.375 44.6875 C-0.90503906 44.69910156 -2.18507813 44.71070313 -3.50390625 44.72265625 C-12.61856427 44.69437913 -20.35735051 44.08014949 -27.125 37.3125 C-31.36031064 31.18846975 -32.87988863 25.74006487 -32.125 18.3125 C-30.70932013 12.66018993 -28.37702797 7.56156607 -23.453125 4.15625 C-15.80359276 -0.42039322 -8.71633693 0.06459736 0 0 Z " fill="#000000" transform="translate(74.125,233.6875)"/>
<path d="M0 0 C7.94430109 7.94430109 7.48403818 16.78788524 7.5625 27.375 C7.59150391 28.65632813 7.62050781 29.93765625 7.65039062 31.2578125 C7.70592224 39.59609854 7.35520757 47.71486483 1.49926758 54.18408203 C-4.34033235 59.60529985 -9.90996291 60.71645036 -17.7421875 60.5625 C-23.71752727 59.94168548 -27.32593901 57.64241519 -31.5625 53.5 C-37.19691925 45.12886283 -37.21434457 37.60768476 -37.125 27.75 C-37.13660156 26.46996094 -37.14820313 25.18992187 -37.16015625 23.87109375 C-37.13187913 14.75643573 -36.51764949 7.01764949 -29.75 0.25 C-19.91568315 -6.55130324 -9.93984913 -6.32535854 0 0 Z " fill="#000000" transform="translate(270.75,46.75)"/>
<path d="M0 0 C5.49987846 3.26341336 8.78108287 7.81045048 10.94506836 13.80175781 C12.28643934 19.39212956 11.98930131 25.15958906 11.9375 30.875 C11.94910156 32.15503906 11.96070313 33.43507813 11.97265625 34.75390625 C11.94715566 42.97359751 11.7299331 49.6083228 6.25 56.125 C0.04822254 61.31718578 -4.16705831 63.71469001 -12.28515625 63.59375 C-18.13853207 62.99885155 -23.28680808 60.52569192 -27.4375 56.375 C-33.05827238 48.24766696 -32.67889342 40.84464831 -32.75 31.25 C-32.79350586 29.32800781 -32.79350586 29.32800781 -32.83789062 27.3671875 C-32.89342224 19.02890146 -32.54270757 10.91013517 -26.68676758 4.44091797 C-19.44397555 -2.2829593 -9.15633813 -4.17779687 0 0 Z " fill="#000000" transform="translate(266.4375,406.625)"/>
<path d="M0 0 C1.61261719 -0.07347656 1.61261719 -0.07347656 3.2578125 -0.1484375 C12.10733342 1.13216272 18.16918991 7.05212531 24.1875 13.25 C25.22100586 14.27287109 25.22100586 14.27287109 26.27539062 15.31640625 C32.41685601 21.53486204 36.53247961 27.2371942 37.125 36.125 C37.02584549 42.78074635 34.59344869 48.65655131 29.875 53.375 C23.71768105 57.63333273 18.32993347 59.07133994 10.875 58.375 C3.09935559 56.49379571 -1.49907294 51.87919139 -7.125 46.375 C-7.94871094 45.58996094 -8.77242187 44.80492187 -9.62109375 43.99609375 C-20.7931999 33.15419764 -20.7931999 33.15419764 -21.328125 25.44921875 C-21.43774567 17.529125 -21.16292095 12.72450259 -15.6875 6.6875 C-10.48482713 1.99240497 -7.10263845 0.2182844 0 0 Z " fill="#000000" transform="translate(120.125,98.625)"/>
<path d="M0 0 C2.60208301 2.30447228 5.10156652 4.68663317 7.58984375 7.11328125 C8.80800781 8.23863281 8.80800781 8.23863281 10.05078125 9.38671875 C17.17159689 16.12901927 21.80358187 21.71291272 22.08984375 31.80078125 C21.81406434 38.20333576 20.52170762 41.85944006 16.33984375 46.73828125 C9.86315085 52.33178875 5.46152048 53.95650029 -3.15625 53.59375 C-14.65535749 51.89580256 -24.23789149 40.6877015 -31.41015625 32.11328125 C-35.54797411 25.89495743 -37.17299673 20.61908674 -36.41015625 13.11328125 C-34.99447638 7.46097118 -32.66218422 2.36234732 -27.73828125 -1.04296875 C-18.65562237 -6.47703816 -8.53599548 -6.68214881 0 0 Z " fill="#000000" transform="translate(391.41015625,359.88671875)"/>
</svg>
